<svg width="26" height="27" viewBox="0 0 26 27" fill="none" xmlns="http://www.w3.org/2000/svg">
<path d="M13 0.000222466C11.2899 -0.0103999 9.59461 0.318603 8.01258 0.968152C6.43055 1.6177 4.99322 2.57487 3.78394 3.78415C2.57465 4.99344 1.61748 6.43077 0.967935 8.0128C0.318386 9.59483 -0.0106173 11.2901 5.10705e-06 13.0002V14.0002C5.10705e-06 17.448 1.36964 20.7546 3.80762 23.1926C6.24559 25.6306 9.55219 27.0002 13 27.0002H20V25.0002H13C10.0826 25.0002 7.28473 23.8413 5.22183 21.7784C3.15893 19.7155 2.00001 16.9176 2.00001 14.0002V13.0002C1.99205 11.5535 2.27114 10.1195 2.82112 8.78131C3.37111 7.44313 4.18106 6.22734 5.20409 5.20431C6.22712 4.18128 7.44292 3.37132 8.78109 2.82134C10.1193 2.27136 11.5532 1.99227 13 2.00022C14.4581 1.94999 15.9109 2.20017 17.2682 2.73519C18.6255 3.27022 19.8583 4.07867 20.8899 5.1103C21.9216 6.14193 22.73 7.3747 23.265 8.732C23.8001 10.0893 24.0502 11.5421 24 13.0002C24 16.5902 22.6 18.0002 20.34 18.0002C18.76 18.0002 18 16.7102 18 15.0002V7.00022H16V8.94022C15.6513 8.32637 15.1402 7.82052 14.5227 7.47827C13.9052 7.13602 13.2054 6.97061 12.5 7.00022C11.0501 6.99489 9.6571 7.56441 8.62622 8.58405C7.59534 9.60368 7.01058 10.9903 7.00001 12.4402V14.5602C7.01058 16.0101 7.59534 17.3968 8.62622 18.4164C9.6571 19.436 11.0501 20.0056 12.5 20.0002C13.3339 20.0247 14.1568 19.8048 14.8675 19.3678C15.5782 18.9307 16.1456 18.2955 16.5 17.5402C16.855 18.2761 17.41 18.8971 18.1015 19.3321C18.793 19.7672 19.593 19.9987 20.41 20.0002C23.48 20.0002 26 18.0002 26 13.0002C26.0383 11.2826 25.7281 9.57497 25.0884 7.98045C24.4486 6.38593 23.4924 4.93754 22.2776 3.72267C21.0627 2.50781 19.6143 1.55164 18.0198 0.911869C16.4253 0.272096 14.7177 -0.0380227 13 0.000222466V0.000222466ZM16 14.5602C16 15.4885 15.6313 16.3787 14.9749 17.0351C14.3185 17.6915 13.4283 18.0602 12.5 18.0602C11.5717 18.0602 10.6815 17.6915 10.0251 17.0351C9.36875 16.3787 9 15.4885 9 14.5602V12.4402C9 11.512 9.36875 10.6217 10.0251 9.96535C10.6815 9.30897 11.5717 8.94022 12.5 8.94022C13.4283 8.94022 14.3185 9.30897 14.9749 9.96535C15.6313 10.6217 16 11.512 16 12.4402V14.5602Z" fill="black" fill-opacity="0.4"/>
</svg>