<svg viewBox="0 0 125 32" fill="none" xmlns="http://www.w3.org/2000/svg">
<g >
<g clip-path="url(#clip0_7_1228)">
<path d="M38.9456 7.06982H47.1535C53.2729 7.06982 56.6205 10.975 56.6205 15.6873C56.6205 21.4034 52.3447 24.9282 47.0611 24.9282H38.9456V7.06982ZM43.3632 21.5704H46.4896C50.0413 21.5704 51.9622 19.6009 51.9622 15.8035C51.9622 12.5007 50.2046 10.4509 46.5476 10.4065H43.3632V21.5704Z" fill="#000000"/>
<path d="M77.0992 17.3926H66.966V21.4668H78.2337L77.7438 24.9282H62.5763V7.06982H77.6643V10.5396H66.9832V13.9207H77.0992V17.3926Z" fill="#000000"/>
<path d="M96.2361 24.9282L91.6015 18.6817H91.5477L87.0506 24.9282H82.1301L89.1305 15.8014L82.3385 7.06982H87.5362L91.8335 12.8388H91.8593L96.191 7.07194H100.948L94.1562 15.6049L101.337 24.9303L96.2361 24.9282Z" fill="#000000"/>
<path d="M109.495 20.8751L107.909 24.9282H103.377L110.683 7.06982H116.334L124.022 24.9282H119.256L117.567 20.8751H109.495ZM116.345 17.4011C114.656 13.3079 113.833 11.2222 113.397 9.8592H113.371C112.965 11.1947 112 13.9101 110.636 17.4011H116.345Z" fill="#000000"/>
</g>
<g clip-path="url(#clip1_7_1228)">
<path fill-rule="evenodd" clip-rule="evenodd" d="M32.0002 0L0.000244141 0L0.000244141 8.47119C0.000282446 8.47119 0.000320752 8.47119 0.000359058 8.47119C4.15874 8.47119 7.52977 11.8422 7.52977 16.0006C7.52977 20.159 4.15874 23.53 0.000359058 23.53C0.000320752 23.53 0.000282446 23.53 0.000244141 23.53L0.000244141 32L32.0002 32L32.0002 0Z" fill="#000000"/>
</g>
</g>
<defs>
<clipPath id="clip0_7_1228">
<rect width="85.0853" height="17.8605" fill="#000000" transform="translate(38.9456 7.06982)"/>
</clipPath>
<clipPath id="clip1_7_1228">
<rect width="32" height="32" fill="#000000"/>
</clipPath>
</defs>
</svg>
